<?xml version="1.0" encoding="utf-8"?>
<!-- Generator: Adobe Illustrator 20.0.0, SVG Export Plug-In . SVG Version: 6.00 Build 0)  -->
<svg version="1.1" id="Layer_4" xmlns="http://www.w3.org/2000/svg" xmlns:xlink="http://www.w3.org/1999/xlink" x="0px" y="0px"
	 viewBox="0 0 610.3 694.5" enable-background="new 0 0 610.3 694.5" xml:space="preserve">
<title>monkey</title>
<path fill="#FFFFFF" stroke="#FFFFFF" stroke-miterlimit="10" d="M524.1,642.7c-10.5-23.7-11.3-51.9-11.5-65.5
	c-0.5-35.9,2.2-38.9-1-59c-2.3-14.4-4.3-16.2-3.5-24.5c1.7-18.1,12-22,22-47c5.2-13.1,9.3-23.7,6.5-36.5c-2-9.2-8.8-25.5-20-27.5
	c-20.4-3.7-53,40.1-58,84c-1.9,16.4,0.5,30.3,3,45.5c2.4,14.6,7.6,31.4,18,65c10,32.5,12.5,36.9,11,46.5c-0.7,4.5-2.6,12.2,1.5,19
	c3.3,5.5,7.3,5.3,12,12c5.2,7.4,2.5,11,6.5,15.5c4.9,5.5,16,3.7,28,4.5c19.2,1.3,28.3,2.9,35.3-1.8c3.9-2.7,3.9-2.8,3.2-7.2
	c-1.2-6.7-10.8-10.6-17.5-11.5c-11.3-1.6-16.1,4.9-24,2C529.8,654.1,526.6,648.5,524.1,642.7z"/>
<path fill="#FFFFFF" stroke="#FFFFFF" stroke-miterlimit="10" d="M46.1,635.7c-10-3.1-12.3-21.7-13-27.5c-0.8-6.7-1.7-14,2.5-21.5
	c0.8-1.5,4.9-8.8,13-11.5c7.6-2.5,11.7,1.3,20,1c9.1-0.3,15-5.3,23.5-11.5c17.8-13,37.7-23,56.5-34.5c24-14.7,22.2-12.6,25.5-15.5
	c2.4-2.1,28.7-26.3,27-61.5c-1.6-34.5-29.7-67.9-46.5-64.5c-11.7,2.4-22.8,23.8-22,41c0.4,7.3,2.8,13.3,1,24.5c-0.9,5.5-2,12.3-7,18
	c-5.5,6.3-10.3,5.2-18,11s-10.1,12-13.5,17.5C85,517,67.9,524.5,43.6,535.2c-26.7,11.8-32.9,7.9-38.5,17c-8.9,14.4-2.4,38.5,0,47.5
	c2.5,9.3,4.2,10.1,5,17.5c0.8,10.9,0.3,21.8-1.5,32.5c-0.8,4.7-1.3,6.6,0,8.5c3.2,4.7,12.4,2.9,26.3,2.8c20.9-0.1,30.7,4.8,39.5-1.3
	c4.1-2.9,5.6-6.7,4.1-10c-0.9-2.1-3.4-2.1-4-4.5c-0.9-3.3-0.3-1.1-1-3.5c-1-3.3-7.5-4.6-10.2-4.6C51.6,636.9,51,637.2,46.1,635.7z"
	/>
<path fill="#FFFFFF" stroke="#FFFFFF" stroke-miterlimit="10" d="M244.8,662.6c-9.7-3.8-32.6-25.1-37-29c-5-4.5-10.5-9.4-12.2-17.9
	c-0.4-1.7,5.7-33.8,10-41.2c4-6.9,9.7-6.7,15.7-12.4c6.7-6.2,7.9-13.8,10.2-24.1c4.9-21.5,20.8-31.7,30.7-51.4
	c12.3-24.7,8.8-35.7,9.3-40c0.4-3.1-6.6-38.8-31-64.2c-23.9-25-67-31.7-77.4-18.1c-7.3,9.5-1.6,32.9,10.3,45.4
	c5.1,5.3,10.8,8.1,16.8,17.8c3,4.8,6.5,10.5,6.5,18.2c0,8.3-4.3,10.7-6.4,20.1c-2,9.3,0.3,15.6,1.3,22.1c3,18.9-4.9,35.8-16.2,59.8
	c-12.4,26.4-27.3,51.5-25.6,62.1c2.7,16.7,23.4,30.6,31.2,35.8c8,5.4,9.8,4.9,15.3,9.9c7.8,7.6,14.5,16.2,20.2,25.5
	c2.5,4,3.7,4.5,17.6,6.1c5.7,0.6,22.7,0.2,31.2,0.2c5,0,12-4.9,10.8-8.3c-0.7-2.1-3.2-2.4-3.7-4.8c-0.6-3.3,2.5-4.2,0.8-6.1
	c-3.1-3.5-8.6-3.3-11.3-3.5C250.3,663.5,249.6,664.5,244.8,662.6z"/>
<path id="Body_Front" fill="#FFFFFF" stroke="#FFFFFF" stroke-miterlimit="10" d="M444.3,506.6c11.8-8.3,22.3-18.2,31.3-29.4
	c7.8-9.4,12-17,18.5-28.5c5.6-10,7.3-14.6,8-20c0.8-6.5-0.6-8.1,1-12.5c2.8-7.5,10.7-12.7,18-14.5c9-2.2,11.2,2.2,23.5,0.5
	c7.9-1.1,7.6-3,15.5-4c10.1-1.2,11.6,1.8,21.5,1c5.9-0.5,15.2-1.3,21-8c3-3.5,4-7.8,6-16.5c1.5-6.6,1.4-10.2,1-13s-0.9-5.7-3-8.5
	c-2.8-3.6-5.3-2.8-7-6s-0.8-6.5,0-10s1.6-3.8,3-8c1.8-5.6,3-9.1,1.5-11.5c-2.2-3.5-7.6-0.7-14-4c-5.6-2.9-5.7-7.1-10-12
	c-7.1-8-18-9.1-27-10c-14.9-1.5-26.2,2.8-34.5,6c-8.6,3.3-17.9,6.8-26.5,15.5c-9.3,9.4-9.2,16.1-17,19.5c-9.3,4-19.7-1.2-23.5-3
	c-27.1-12.8-58.5-12.6-87.5-20c-66.2-16.9-99.3-25.4-108.5-26.5c-6.4-0.8-17.7-1.8-30.5-8.5c-10.9-5.7-11.1-9.5-18.5-11.5
	c-18.4-5.1-42.8,10.8-42.5,22.5c0.1,5.4,5.5,6.6,5.5,12.5c0,8-9.9,11.8-19.5,20.5c-15.8,14.3-20.6,32.8-22,38
	c-4.8,18.3-0.8,33.7,1.5,42.5c6.6,25.5,22.2,41.7,33,53c15.5,16.3,23.3,24.4,34.5,29.5c3.9,1.7,8.7,3.5,12,8.5
	c5.1,7.8,45.1-51,34.5-74.5c-1.1-2.5-4.9-11-4-11.5c1.1-0.6,8.1,10.9,14,18.5c13.8,17.6,31.2,25.3,50.5,33.5
	c41.5,17.7,68,14.7,70,26c1.1,6.6-7.6,9.2-14,25c-4.4,10.9-4,18.7-4.5,31.5c-0.3,7.1-1.5,37.9-9,67.5c-5.8,23-11.2,28.5-9,43
	c1.3,8.6,4.8,17.4,9,28c4,10.1,5.8,12.3,8,14c4.3,3.3,8.2,2.8,26.5,2.5c19.1-0.3,23.5,0,24.5-2.5c1.3-3.2-3.9-9.2-9.5-12
	c-7.5-3.7-12.4,0.1-18-3.5c-5.1-3.2-6.3-9.7-7-13.5c-2.9-15.9,5.5-27.2,15.5-55.5c8.9-25.3,11.9-43.7,19.5-53
	c2.5-2.9,4.4-6.3,5.5-10c1.7-5.7,0.5-9.1,1-12.5c1.2-8.6,12.1-13.1,21-18C437.2,511.2,440.8,509,444.3,506.6"/>
<path id="Tail" fill="#FFFFFF" d="M339.7,280.7c0.7,16.4-1.4,37.3-5.6,54.5c-1.5,6.3-7.2,27.6-12,57.5c-2.3,14.3-1.7,13.7-3,19.5
	c-8,35.3-31.1,60.7-34,59c-1.9-1.1,4.6-10.3,9-32.5c3.3-16.6,2.1-24,3.5-38c2.3-23.4,8.4-33.3,14-53c6.1-21.6,6.8-45.3,7-75.5v-1
	c0.3-38.5,0.1-94.5-24.5-157.5c-16.8-42.9-33-58.4-38-63c-9.2-8.4-34.9-31.7-72-30c-17.6,0.9-34.4,6.9-48.5,17.5
	c-33.2,25.4-35.4,67-36,78c-2.8,52.4,30.9,89.4,41.5,101c26.4,29,49.5,37,49.5,37c11.9,5.6,20.7,7.9,27,17.5c8,12.2,9.8,32.9-1,41.5
	c-11.4,9.1-31.4,0.5-41.5-7.5c-9.9-7.8-9.9-11.5-22.2-26.5c-10.2-12.5-19.3-20.7-24.3-26c-17.2-18-43.1-55.4-51-89.5
	c-4.2-18.2-13.8-59.2,8-101c5-9.7,21.9-40.9,58.5-55.5c48.1-19.2,99,3,127,29c15.6,14.5,22.6,28.9,33.5,51c21,42.8,25.4,79.4,30,117
	c1.4,11.5,5.1,43.3,5.1,75.4"/>
<g id="Tail-2">
	<path fill="#FFFFFF" d="M339.7,279.6l0.1,1.2c0,0.8,0.1,1.9,0.2,3.4c0.1,3,0.2,7.4,0,13s-0.7,12.4-1.6,20.2
		c-0.5,3.9-1.1,8-1.9,12.3s-1.9,8.8-3,13.5c-2.1,9.3-4.3,19.5-6.3,30.3c-1,5.4-1.9,10.9-2.8,16.6c-0.9,5.7-1.8,11.5-2.5,17.5
		c-0.2,1.5-0.5,3.1-0.8,4.6l-0.5,2.2l-0.6,2.3c-0.8,3-1.7,6-2.7,9c-4.1,12.1-10,23.6-17.4,34c-1.9,2.7-3.9,5.2-6.1,7.6
		c-1.1,1.2-2.3,2.4-3.5,3.5c-0.7,0.6-1.4,1.1-2.2,1.6c-0.5,0.3-1,0.6-1.5,0.7c-0.5,0.2-1,0.2-1.5,0.1c-0.2,0-0.4-0.1-0.6-0.2
		c-0.4-0.2-0.7-0.5-1-0.8c-0.1-0.2-0.2-0.3-0.3-0.5c-0.2-0.5-0.3-1-0.2-1.5c0-0.3,0.1-0.6,0.1-0.9c0.1-0.5,0.2-0.9,0.4-1.4
		c0.3-0.8,0.5-1.6,0.8-2.4l1.7-4.5c1.1-3,2.1-6,3-9c1.8-6,3.2-12.1,4.3-18.3c1-6.1,1.7-12.2,1.9-18.4c0.3-6.1,0.6-12.3,1.4-18.3
		c0.7-5.9,1.9-11.8,3.5-17.6c1.5-5.6,3.5-11,5.3-16.2s3.6-10.2,5.1-15.1c1.4-4.7,2.6-9.6,3.5-14.4c1.6-8.6,2.7-17.2,3.3-25.9
		c0.6-7.8,0.9-14.5,1.1-20.1l0.6-17.6l0.1,4.6c0,3,0.1,7.4,0.1,13s-0.1,12.4-0.5,20.2c-0.3,8.8-1.2,17.5-2.5,26.2
		c-0.8,5-1.9,9.9-3.2,14.7c-1.4,5-3,10.1-4.8,15.4s-3.6,10.5-5,16c-1.4,5.6-2.5,11.4-3.1,17.1c-0.7,5.9-0.9,11.9-1.1,18.1
		c-0.1,6.3-0.7,12.6-1.7,18.9c-1,6.3-2.5,12.6-4.3,18.8c-0.9,3.1-1.9,6.2-3,9.2l-1.7,4.5c-0.3,0.7-0.5,1.5-0.8,2.2
		c-0.1,0.3-0.2,0.7-0.3,1c0,0.1,0,0.2,0,0.3c0-0.1,0-0.2-0.1-0.3c0-0.1-0.1-0.2-0.1-0.3c-0.1-0.1-0.2-0.2-0.4-0.3
		c0.4,0.3,0.5,0.9,0.2,1.3c-0.3,0.4-0.9,0.5-1.3,0.2s-0.5-0.9-0.2-1.3c0.3-0.3,0.7-0.5,1.1-0.3c-0.1,0-0.2-0.1-0.3-0.1
		c-0.1,0-0.2,0-0.4,0c0.2-0.1,0.4-0.2,0.6-0.3c0.6-0.4,1.1-0.8,1.6-1.3c1.1-1,2.2-2.1,3.2-3.2c2-2.3,3.9-4.8,5.7-7.3
		c3.6-5.1,6.9-10.4,9.8-16c2.8-5.5,5.2-11.1,7.3-16.9c1-2.9,1.9-5.8,2.7-8.6l0.6-2.2l0.5-2.2c0.3-1.5,0.6-2.9,0.8-4.3
		c1.5-11.9,3.6-23.4,5.8-34.2s4.6-21,7-30.3c1.2-4.7,2.4-9.1,3.3-13.3s1.7-8.3,2.3-12.1c1.2-7.7,2-14.4,2.4-20s0.6-10,0.6-13
		c0-1.5,0-2.6,0-3.4v-1.2L339.7,279.6z"/>
</g>
<g id="Stroke_Back_Leg">
	<path fill="#FFFFFF" d="M126.2,385.8c0,0,0.5,2.3,1.5,6.2c0.5,2,1.3,4.3,2.1,7l1.4,4.3l1.6,4.7c1.2,3.2,2.5,6.7,4,10.4
		s3.3,7.4,5.1,11.2s4.1,7.7,6.4,11.6c2.3,3.9,4.9,7.6,7.6,11.2c1.4,1.8,2.7,3.6,4.2,5.4s2.9,3.5,4.4,5.1c2.9,3.3,6,6.4,9.3,9.2
		c1.6,1.4,3.2,2.7,4.9,4s3.3,2.5,4.8,3.9s2.9,2.7,4.2,4.2c1.3,1.4,2.4,2.9,3.2,4.7c0.8,1.6,1.2,3.4,1.1,5.1
		c-0.1,1.6-0.3,3.1-0.5,4.5l-1.1,7.2c-0.3,2-0.5,3.6-0.5,4.7c0,0.6,0,1.1,0,1.7c-0.1-0.6-0.1-1.1-0.1-1.7c0-1.1,0.1-2.7,0.2-4.7
		s0.4-4.5,0.6-7.3c0.2-1.5,0.2-2.9,0.3-4.4c-0.1-1.6-0.6-3.1-1.4-4.4c-1.7-2.8-4.5-5.2-7.6-7.6s-6.7-4.6-10.2-7.3
		c-3.6-2.8-6.9-5.9-10-9.2c-1.6-1.7-3.1-3.5-4.6-5.2c-1.5-1.8-3-3.6-4.4-5.5c-5.4-7.4-10.1-15.3-13.9-23.7c-1.8-4-3.4-7.9-4.8-11.7
		c-0.7-1.9-1.3-3.7-1.9-5.5s-1.1-3.5-1.6-5.2s-0.9-3.3-1.3-4.9l-1-4.4c-0.6-2.8-1-5.2-1.4-7.2s-0.5-3.6-0.6-4.7L126.2,385.8z"/>
</g>
<g id="Stroke_Front_Leg">
	<path fill="#FFFFFF" d="M450.2,503l1.5-1.3c1-0.9,2.4-2.2,4.2-3.9s3.9-3.8,6.2-6.4s4.8-5.5,7.5-8.7c1.3-1.6,2.7-3.4,4.1-5.2
		l2.1-2.8c0.7-0.9,1.4-1.9,2.1-2.8c2.9-4.1,5.7-8.3,8.2-12.7c2.6-4.5,5.2-9.4,7.9-14.2s5.1-9.8,5.9-15c0.2-1.3,0.4-2.7,0.5-4
		c0.1-1.3,0-2.6,0-4.1c-0.1-1.6,0.1-3.2,0.5-4.7c0.1-0.4,0.2-0.8,0.4-1.1l0.1-0.3l0.1-0.2l0-0.1l0.2-0.5c0.2-0.3,0.2-0.6,0.4-1
		l0.6-1.1c1.5-2.6,3.5-4.9,5.9-6.7c2.2-1.8,4.7-3.3,7.3-4.4c2.5-1.1,5.2-1.8,8-2.1c2.6-0.2,5.3,0.1,7.9,0.7c2.2,0.5,4.5,0.9,6.8,1
		c2.1,0.1,4.3,0,6.4-0.3c2-0.2,3.9-0.6,5.8-1.2c1.7-0.7,3.5-1.2,5.3-1.6c1.6-0.3,3.2-0.5,4.9-0.6c1.4,0,2.8,0,4.2,0.2
		c1.9,0.3,3.8,0.7,5.6,1.2c1.3,0.3,2,0.5,2,0.5s-0.7-0.1-2-0.3c-1.9-0.3-3.8-0.6-5.7-0.7c-1.3-0.1-2.7-0.1-4,0.1
		c-1.6,0.2-3.1,0.6-4.6,1c-1.7,0.6-3.4,1.2-5,2c-1.9,0.8-3.9,1.3-6,1.7c-2.2,0.4-4.5,0.6-6.8,0.7c-2.4,0-4.9-0.3-7.3-0.7
		c-2.3-0.5-4.7-0.6-7-0.4c-2.4,0.4-4.8,1.1-7,2.1c-4.7,2-8.6,5.4-11.2,9.8l-0.4,0.8c-0.1,0.2-0.3,0.6-0.4,0.9l-0.2,0.5l0,0.1
		c0,0,0-0.1,0,0v0l-0.1,0.2c-0.1,0.3-0.2,0.6-0.3,0.9c-0.3,1.2-0.4,2.4-0.3,3.6c0.1,1.4,0.1,2.9,0,4.4c-0.1,1.5-0.2,3-0.5,4.5
		c-0.5,2.9-1.4,5.8-2.6,8.5c-1.2,2.7-2.5,5.2-3.8,7.7s-2.7,4.9-4.1,7.2s-2.8,4.7-4.2,7c-2.7,4.4-5.6,8.7-8.8,12.7
		c-0.8,1-1.5,1.9-2.3,2.8l-2.3,2.7c-1.5,1.7-3,3.4-4.4,5c-2.9,3.2-5.6,6-8.1,8.3s-4.8,4.3-6.8,5.9c-1,0.8-1.8,1.5-2.6,2
		s-1.4,1.1-2,1.5L450.2,503z"/>
</g>
</svg>
