<svg xmlns="http://www.w3.org/2000/svg" viewBox="0 0 609.83 693.96">
  <defs>
    <style>
      .a, .b {
        fill: #fff;
      }

      .a {
        stroke: #fff;
        stroke-miterlimit: 10;
      }
    </style>
  </defs>
  <title>monkey_logo_transp_white</title>
  <path class="a" d="M244.84,662.57c-9.73-3.84-32.65-25.14-37-29-5-4.47-10.46-9.4-12.23-17.86-.36-1.71,5.7-33.84,10-41.18,4-6.9,9.67-6.73,15.74-12.37,6.69-6.22,7.86-13.83,10.18-24.1,4.86-21.52,20.82-31.7,30.69-51.44,12.33-24.67,8.78-35.67,9.33-40,.4-3.13-6.65-38.79-31-64.23-23.92-25-67-31.73-77.42-18.13-7.29,9.51-1.61,32.92,10.32,45.37,5.07,5.3,10.83,8.14,16.84,17.83,3,4.75,6.54,10.55,6.54,18.17,0,8.34-4.31,10.69-6.36,20.11-2,9.25.26,15.62,1.3,22.06,3,18.88-4.89,35.78-16.2,59.83-12.39,26.36-27.33,51.53-25.63,62.07,2.68,16.69,23.44,30.63,31.18,35.83,8,5.38,9.83,4.87,15.26,9.92a131.39,131.39,0,0,1,20.2,25.5c2.52,4,3.74,4.53,17.59,6.09,5.73.64,22.66.21,31.21.23,5,0,12-4.91,10.82-8.33-.73-2.14-3.19-2.38-3.66-4.78-.65-3.34,2.46-4.2.75-6.14-3.07-3.5-8.64-3.27-11.25-3.5C250.34,663.47,249.57,664.45,244.84,662.57Z" transform="translate(0 0)"/>
  <path class="b" d="M293,433.89a140.51,140.51,0,0,0,1.87-18.37c.27-6.14.58-12.34,1.35-18.33a119.1,119.1,0,0,1,3.45-17.56c1.53-5.65,3.47-11,5.31-16.18s3.61-10.19,5.1-15.11a141.66,141.66,0,0,0,3.5-14.42,243.29,243.29,0,0,0,3.29-25.87c.28-3.61.49-7,.66-10.18-35.76-9.08-55.24-13.81-62-14.63-6.39-.78-17.74-1.78-30.5-8.5-6.46-3.41-9.17-6.12-11.86-8.19-5.83-5.49-13.3-7.86-22.64-12.31,0,0-23.11-8-49.5-37-10.59-11.62-44.26-48.55-41.5-101,.58-11,2.77-52.62,36-78a87.88,87.88,0,0,1,48.5-17.5c37.15-1.7,62.76,21.59,72,30,5,4.58,21.21,20.07,38,63,24.64,63,24.76,119,24.5,157.5v.26l0-1.17.06,4.6c0,3,.09,7.4.06,13s-.11,12.4-.47,20.21a226,226,0,0,1-2.54,26.16A145.35,145.35,0,0,1,312.5,349c-1.37,5-3,10.15-4.79,15.36s-3.56,10.52-5,16a124.44,124.44,0,0,0-3.09,17.13c-.7,5.92-.93,11.91-1.13,18.11a138.06,138.06,0,0,1-1.74,18.86,156.67,156.67,0,0,1-4.29,18.75c-.91,3.1-1.94,6.17-3,9.2l-1.67,4.5-.31.85.1-.08a40.36,40.36,0,0,0,3.24-3.21,84.94,84.94,0,0,0,5.7-7.32,125.43,125.43,0,0,0,9.75-16,134.81,134.81,0,0,0,7.29-16.93c1-2.87,1.9-5.76,2.68-8.65l.56-2.16.52-2.19c.33-1.45.61-2.85.81-4.3,1.53-11.91,3.64-23.38,5.82-34.18s4.56-21,7-30.26c1.2-4.66,2.43-9.07,3.34-13.32s1.71-8.31,2.34-12.14c1.24-7.67,2-14.43,2.37-20s.57-10,.6-13v-4.59l0,.1c0-32.06-3.7-63.93-5.1-75.38-4.62-37.64-9-74.24-30-117-10.86-22.14-17.89-36.49-33.5-51-28-26-78.86-48.19-127-29-36.58,14.59-53.5,45.84-58.5,55.5-21.79,41.8-12.24,82.78-8,101,7.94,34.09,33.79,71.5,51,89.5,5.08,5.32,14.11,13.49,24.33,26,9.29,11.36,11.56,16.25,16.37,21.31-1.71,6.51-10.6,10.39-19.2,18.19-15.79,14.32-20.65,32.84-22,38-4.8,18.31-.79,33.7,1.5,42.5,6.65,25.5,22.21,41.67,33,53,15.5,16.29,23.25,24.44,34.5,29.5,3.86,1.74,8.72,3.48,12,8.5,5.08,7.76,45.09-51,34.5-74.5-1.13-2.52-4.94-11-4-11.5,1.14-.64,8.06,10.91,14,18.5,10.22,13.06,22.42,20.64,35.89,27A152.8,152.8,0,0,0,293,433.89Z" transform="translate(0 0)"/>
  <g>
    <path class="a" d="M136.78,418.22c1.5,3.63,3.28,7.39,5.15,11.24s4.06,7.71,6.35,11.56a129.49,129.49,0,0,0,7.57,11.22c1.36,1.83,2.74,3.58,4.21,5.38s2.89,3.46,4.41,5.12a96.49,96.49,0,0,0,9.29,9.23q2.4,2.1,4.85,4c1.63,1.27,3.27,2.54,4.79,3.91a59.07,59.07,0,0,1,4.21,4.15,18.93,18.93,0,0,1,3.22,4.65,10.64,10.64,0,0,1,1,3c5.52-10.2,10-23.32,9.29-38.49-1.64-34.55-29.71-67.92-46.5-64.5-8.14,1.66-16,12.45-19.72,24.65Q135.77,415.75,136.78,418.22Z" transform="translate(0 0)"/>
    <path class="a" d="M189.41,489.44c-1.67-2.79-4.54-5.2-7.6-7.59s-6.68-4.57-10.16-7.3a93.14,93.14,0,0,1-10-9.24c-1.57-1.68-3.12-3.46-4.61-5.23s-3-3.6-4.38-5.48a132.67,132.67,0,0,1-13.87-23.71q-2.75-6-4.76-11.68c-.14-.39-.27-.77-.41-1.15a45.64,45.64,0,0,0-1.05,11.68c.35,7.33,2.83,13.26,1,24.5-.9,5.52-2,12.25-7,18-5.48,6.29-10.27,5.23-18,11s-10.06,12-13.5,17.5C85,517,67.89,524.52,43.57,535.24c-26.65,11.75-32.86,7.94-38.5,17-8.93,14.36-2.43,38.49,0,47.5,2.51,9.31,4.22,10.13,5,17.5a131.39,131.39,0,0,1-1.5,32.5c-.76,4.71-1.29,6.64,0,8.5,3.23,4.65,12.39,2.88,26.33,2.83,20.9-.06,30.71,4.77,39.52-1.32,4.14-2.86,5.56-6.69,4.15-10-.88-2.08-3.36-2.14-4-4.5-.89-3.28-.26-1.06-1-3.53-1-3.34-7.54-4.6-10.16-4.64-11.78-.17-12.46.16-17.34-1.34-10-3.12-12.28-21.7-13-27.5-.82-6.65-1.73-14,2.5-21.5.85-1.52,4.92-8.79,13-11.5,7.58-2.55,11.71,1.27,20,1,9.13-.3,15-5.28,23.5-11.5,17.8-13,37.69-23,56.5-34.5,24-14.74,22.24-12.59,25.5-15.5a89.65,89.65,0,0,0,16.7-21.19A9.52,9.52,0,0,0,189.41,489.44Z" transform="translate(0 0)"/>
  </g>
  <g>
    <path class="a" d="M462.14,491.37c2.33-2.52,4.83-5.47,7.48-8.74,1.32-1.64,2.67-3.38,4.07-5.19l2.14-2.75c.7-.93,1.41-1.86,2.12-2.84a150.17,150.17,0,0,0,8.16-12.71c2.63-4.54,5.23-9.4,7.88-14.23s5.07-9.83,5.91-15a34.27,34.27,0,0,0,.45-4c.08-1.33,0-2.62,0-4.07a15.48,15.48,0,0,1,.45-4.74c.11-.39.22-.78.36-1.14l.1-.28.08-.21,0-.12.21-.48c.15-.33.24-.62.44-1l.56-1.07a23.51,23.51,0,0,1,5.86-6.74,30.65,30.65,0,0,1,7.35-4.35,27.26,27.26,0,0,1,8-2.1,24.71,24.71,0,0,1,7.88.72c.61.14,1.21.27,1.83.38-3.38-8.09-9.06-16.55-16.95-18-20.4-3.7-53,40.15-58,84a118.39,118.39,0,0,0,.36,28Q460.44,493.2,462.14,491.37Z" transform="translate(0 0)"/>
    <path class="a" d="M577.07,665.74c-1.18-6.71-10.82-10.56-17.5-11.5-11.32-1.6-16.14,4.87-24,2-5.81-2.12-9-7.77-11.5-13.5-10.5-23.72-11.29-51.86-11.5-65.5-.55-35.91,2.22-38.92-1-59-2.31-14.44-4.27-16.19-3.5-24.5,1.67-18.08,12-22,22-47,5.22-13.14,9.27-23.71,6.5-36.5a54.51,54.51,0,0,0-1.88-6.48c-1.15-.12-2.3-.29-3.43-.51a21.68,21.68,0,0,0-7-.37,26.36,26.36,0,0,0-7,2.09A24.23,24.23,0,0,0,506,414.73l-.41.78c-.14.24-.27.62-.41.92l-.2.48,0,.12v0l-.07.22a7.61,7.61,0,0,0-.26.86,11.54,11.54,0,0,0-.29,3.62c.06,1.37.13,2.89,0,4.39a38,38,0,0,1-.47,4.45,36.88,36.88,0,0,1-2.62,8.52c-1.16,2.68-2.47,5.21-3.83,7.68s-2.73,4.86-4.11,7.22-2.75,4.7-4.15,7a124.68,124.68,0,0,1-8.8,12.7c-.76,1-1.54,1.91-2.3,2.83l-2.27,2.65c-1.5,1.73-3,3.4-4.39,5-2.86,3.17-5.61,6-8.14,8.33-1.49,1.37-2.88,2.6-4.19,3.72.67,5.26,1.55,10.53,2.46,16,2.44,14.58,7.63,31.39,18,65,10,32.54,12.49,36.91,11,46.5-.69,4.46-2.57,12.15,1.5,19,3.29,5.54,7.32,5.25,12,12,5.15,7.43,2.53,11,6.5,15.5,4.86,5.46,16,3.66,28,4.5,19.19,1.34,28.35,2.93,35.33-1.83C577.78,670.26,577.83,670.09,577.07,665.74Z" transform="translate(0 0)"/>
  </g>
  <path class="b" d="M609.57,361.74c-.42-2.82-.86-5.74-3-8.5-2.79-3.6-5.31-2.84-7-6s-.81-6.48,0-10,1.62-3.79,3-8c1.84-5.63,3-9.12,1.5-11.5-2.17-3.49-7.58-.7-14-4-5.58-2.87-5.7-7.15-10-12-7.09-8-18-9.1-27-10-14.87-1.5-26.22,2.84-34.5,6-8.58,3.28-17.91,6.84-26.5,15.5-9.33,9.4-9.2,16.15-17,19.5-9.28,4-19.68-1.2-23.5-3-27.06-12.77-58.51-12.59-87.5-20l-24.49-6.26c-.27,4.18-.68,8.84-1.32,13.9-.49,3.88-1.1,8-1.91,12.33s-1.94,8.82-3,13.47c-2.15,9.34-4.29,19.49-6.29,30.27q-1.5,8.09-2.82,16.64c-.92,5.71-1.75,11.46-2.45,17.45-.2,1.53-.48,3.09-.81,4.59l-.51,2.24-.56,2.26c-.77,3-1.66,6-2.66,9a132.76,132.76,0,0,1-14.68,30l1.5.64c41.47,17.65,68,14.65,70,26,1.13,6.6-7.57,9.21-14,25-4.42,10.86-4,18.69-4.5,31.5-.28,7.06-1.52,37.88-9,67.5-5.81,23-11.16,28.55-9,43,1.29,8.61,4.8,17.44,9,28,4,10.14,5.81,12.34,8,14,4.33,3.28,8.17,2.81,26.5,2.5,19.08-.33,23.52,0,24.5-2.5,1.25-3.23-3.86-9.24-9.5-12-7.46-3.65-12.41.08-18-3.5-5.06-3.24-6.32-9.71-7-13.5-2.87-15.92,5.5-27.17,15.5-55.5,8.93-25.3,11.93-43.7,19.5-53a27.74,27.74,0,0,0,5.5-10c1.68-5.68.53-9.08,1-12.5,1.19-8.6,12.09-13.12,21-18a125.06,125.06,0,0,0,10.71-6.6,150.75,150.75,0,0,0,13-10.24c1.46-1.45,3.09-3.13,4.85-5,2.33-2.52,4.83-5.47,7.48-8.74,1.32-1.64,2.67-3.38,4.07-5.19l2.14-2.75c.7-.93,1.41-1.86,2.12-2.84a150.17,150.17,0,0,0,8.16-12.71c2.63-4.54,5.23-9.4,7.88-14.23s5.07-9.83,5.91-15a34.27,34.27,0,0,0,.45-4c.08-1.33,0-2.62,0-4.07a15.48,15.48,0,0,1,.45-4.74c.11-.39.22-.78.36-1.14l.1-.28.08-.21,0-.12.21-.48c.15-.33.24-.62.44-1l.56-1.07a23.51,23.51,0,0,1,5.86-6.74,30.65,30.65,0,0,1,7.35-4.35,27.26,27.26,0,0,1,8-2.1,24.71,24.71,0,0,1,7.88.72,41.35,41.35,0,0,0,6.77,1,39.86,39.86,0,0,0,6.39-.25,30.5,30.5,0,0,0,5.76-1.2,43.66,43.66,0,0,1,5.32-1.62,32.45,32.45,0,0,1,4.88-.6,23.38,23.38,0,0,1,4.17.23l.38.07c5.78.15,8.32,1.94,16.21,1.28,5.9-.49,15.19-1.27,21-8,3-3.45,4-7.8,6-16.5C610.09,368.17,610,364.56,609.57,361.74Z" transform="translate(0 0)"/>
</svg>
