<svg id="Layer_4" data-name="Layer 4" xmlns="http://www.w3.org/2000/svg" viewBox="0 0 610.34 694.46"><defs><style>.cls-1{stroke:#000;stroke-miterlimit:10;}.cls-2{fill:#fff;}</style></defs><title>monkey</title><path class="cls-1" d="M602.5,685.5C592,661.78,591.21,633.64,591,620c-0.55-35.91,2.22-38.92-1-59-2.31-14.44-4.27-16.19-3.5-24.5,1.67-18.08,12-22,22-47,5.22-13.14,9.27-23.71,6.5-36.5-2-9.16-8.77-25.47-20-27.5-20.4-3.7-53,40.15-58,84-1.86,16.43.45,30.26,3,45.5,2.44,14.58,7.63,31.39,18,65,10,32.54,12.49,36.91,11,46.5-0.69,4.46-2.57,12.15,1.5,19,3.29,5.54,7.32,5.25,12,12,5.15,7.43,2.53,11,6.5,15.5,4.86,5.46,16,3.66,28,4.5,19.19,1.34,28.35,2.93,35.33-1.83,3.88-2.65,3.93-2.82,3.17-7.17-1.18-6.71-10.82-10.56-17.5-11.5-11.32-1.6-16.14,4.87-24,2C608.19,696.88,605,691.23,602.5,685.5Z" transform="translate(-78.43 -42.76)"/><path class="cls-1" d="M124.5,678.5c-10-3.12-12.28-21.7-13-27.5-0.82-6.65-1.73-14,2.5-21.5,0.85-1.52,4.92-8.79,13-11.5,7.58-2.55,11.71,1.27,20,1,9.13-.3,15-5.28,23.5-11.5,17.8-13,37.69-23,56.5-34.5,24.05-14.74,22.24-12.59,25.5-15.5,2.36-2.1,28.67-26.33,27-61.5-1.64-34.55-29.71-67.92-46.5-64.5-11.74,2.39-22.83,23.78-22,41,0.35,7.33,2.83,13.26,1,24.5-0.9,5.52-2,12.25-7,18-5.48,6.29-10.27,5.23-18,11s-10.06,12-13.5,17.5c-10.09,16.24-27.18,23.78-51.5,34.5-26.65,11.75-32.86,7.94-38.5,17-8.93,14.36-2.43,38.49,0,47.5,2.51,9.31,4.22,10.13,5,17.5A131.39,131.39,0,0,1,87,692.5c-0.76,4.71-1.29,6.64,0,8.5,3.23,4.65,12.39,2.88,26.33,2.83,20.9-.06,30.71,4.77,39.52-1.32,4.14-2.86,5.56-6.69,4.15-10-0.88-2.08-3.36-2.14-4-4.5-0.89-3.28-.26-1.06-1-3.53-1-3.34-7.54-4.6-10.16-4.64C130.06,679.67,129.38,680,124.5,678.5Z" transform="translate(-78.43 -42.76)"/><path class="cls-1" d="M323.27,705.33c-9.73-3.84-32.65-25.14-37-29-5-4.47-10.46-9.4-12.23-17.86-0.36-1.71,5.7-33.84,10-41.18,4-6.9,9.67-6.73,15.74-12.37,6.69-6.22,7.86-13.83,10.18-24.1,4.86-21.52,20.82-31.7,30.69-51.44,12.33-24.67,8.78-35.67,9.33-40,0.4-3.13-6.65-38.79-31-64.23-23.92-25-67-31.73-77.42-18.13-7.29,9.51-1.61,32.92,10.32,45.37,5.07,5.3,10.83,8.14,16.84,17.83,2.95,4.75,6.54,10.55,6.54,18.17,0,8.34-4.31,10.69-6.36,20.11-2,9.25.26,15.62,1.3,22.06,3.05,18.88-4.89,35.78-16.2,59.83-12.39,26.36-27.33,51.53-25.63,62.07,2.68,16.69,23.44,30.63,31.18,35.83,8,5.38,9.83,4.87,15.26,9.92a131.39,131.39,0,0,1,20.2,25.5c2.52,4.05,3.74,4.53,17.59,6.09,5.73,0.64,22.66.21,31.21,0.23,5,0,12-4.91,10.82-8.33-0.73-2.14-3.19-2.38-3.66-4.78-0.65-3.34,2.46-4.2.75-6.14-3.07-3.5-8.64-3.27-11.25-3.5C328.77,706.23,328,707.21,323.27,705.33Z" transform="translate(-78.43 -42.76)"/><path id="Body_Front" data-name="Body Front" class="cls-1" d="M522.71,549.4A150.76,150.76,0,0,0,554,520c7.77-9.4,12-17,18.5-28.5,5.6-10,7.32-14.61,8-20,0.83-6.54-.63-8.11,1-12.5,2.8-7.5,10.74-12.71,18-14.5,9-2.22,11.19,2.22,23.5.5,7.94-1.11,7.6-3,15.5-4,10.13-1.23,11.57,1.83,21.5,1,5.9-.49,15.19-1.27,21-8,3-3.45,4-7.8,6-16.5,1.52-6.57,1.42-10.18,1-13s-0.86-5.74-3-8.5c-2.79-3.6-5.31-2.84-7-6s-0.81-6.48,0-10,1.62-3.79,3-8c1.84-5.63,3-9.12,1.5-11.5-2.17-3.49-7.58-.7-14-4-5.58-2.87-5.7-7.15-10-12-7.09-8-18-9.1-27-10-14.87-1.5-26.22,2.84-34.5,6-8.58,3.28-17.91,6.84-26.5,15.5-9.33,9.4-9.2,16.15-17,19.5-9.28,4-19.68-1.2-23.5-3-27.06-12.77-58.51-12.59-87.5-20C376.33,335.58,343.25,327.12,334,326c-6.39-.78-17.74-1.78-30.5-8.5C292.65,311.78,292.39,308,285,306c-18.36-5.07-42.77,10.8-42.5,22.5,0.13,5.43,5.5,6.61,5.5,12.5,0,8-9.93,11.82-19.5,20.5-15.79,14.32-20.65,32.84-22,38-4.8,18.31-.79,33.7,1.5,42.5,6.65,25.5,22.21,41.67,33,53,15.5,16.29,23.25,24.44,34.5,29.5,3.86,1.74,8.72,3.48,12,8.5,5.08,7.76,45.09-51,34.5-74.5-1.13-2.52-4.94-11-4-11.5,1.14-.64,8.06,10.91,14,18.5,13.81,17.64,31.2,25.29,50.5,33.5,41.47,17.65,68.05,14.65,70,26,1.13,6.6-7.57,9.21-14,25-4.42,10.86-4,18.69-4.5,31.5-0.28,7.06-1.52,37.88-9,67.5-5.81,23-11.16,28.55-9,43,1.29,8.61,4.8,17.44,9,28,4,10.14,5.81,12.34,8,14,4.33,3.28,8.17,2.81,26.5,2.5,19.08-.33,23.52,0,24.5-2.5,1.25-3.23-3.86-9.24-9.5-12-7.46-3.65-12.41.08-18-3.5-5.06-3.24-6.32-9.71-7-13.5-2.87-15.92,5.5-27.17,15.5-55.5,8.93-25.3,11.93-43.7,19.5-53a27.74,27.74,0,0,0,5.5-10c1.68-5.68.53-9.08,1-12.5,1.19-8.6,12.09-13.12,21-18a125.06,125.06,0,0,0,10.71-6.6" transform="translate(-78.43 -42.76)"/><path id="Tail" d="M418.1,323.5c0.71,16.38-1.4,37.27-5.6,54.5-1.54,6.34-7.21,27.63-12,57.5-2.29,14.25-1.68,13.67-3,19.5-8,35.25-31.09,60.7-34,59-1.89-1.11,4.6-10.33,9-32.5,3.3-16.6,2.15-24,3.5-38,2.26-23.43,8.42-33.29,14-53,6.12-21.6,6.76-45.32,7-75.5v-1c0.26-38.53.14-94.52-24.5-157.5-16.79-42.93-33-58.42-38-63-9.24-8.41-34.85-31.7-72-30A87.88,87.88,0,0,0,214,81c-33.23,25.38-35.42,67-36,78-2.76,52.45,30.91,89.38,41.5,101,26.39,28.95,49.5,37,49.5,37,11.85,5.65,20.7,7.93,27,17.5,8,12.19,9.75,32.88-1,41.5-11.37,9.12-31.36.48-41.5-7.5-9.87-7.76-9.87-11.45-22.17-26.5-10.22-12.51-19.25-20.68-24.33-26-17.21-18-43.06-55.41-51-89.5-4.24-18.22-13.79-59.2,8-101,5-9.66,21.92-40.91,58.5-55.5,48.14-19.19,99,3,127,29,15.61,14.51,22.64,28.86,33.5,51,21,42.76,25.38,79.36,30,117,1.4,11.45,5.1,43.32,5.1,75.38" transform="translate(-78.43 -42.76)"/><g id="Tail-2" data-name="Tail"><path class="cls-2" d="M418.1,322.38l0.07,1.17c0,0.77.12,1.92,0.16,3.42,0.11,3,.21,7.41,0,13s-0.67,12.41-1.64,20.17c-0.49,3.88-1.1,8-1.91,12.33s-1.94,8.82-3,13.47c-2.15,9.34-4.29,19.49-6.29,30.27q-1.5,8.09-2.82,16.64c-0.92,5.71-1.75,11.46-2.45,17.45-0.2,1.53-.48,3.09-0.81,4.59l-0.51,2.24-0.56,2.26c-0.77,3-1.66,6-2.66,8.95a132.76,132.76,0,0,1-17.4,34,88.79,88.79,0,0,1-6.11,7.65,44.17,44.17,0,0,1-3.55,3.55,17.58,17.58,0,0,1-2.16,1.64,6.66,6.66,0,0,1-1.54.74,3.22,3.22,0,0,1-1.54.12,2.43,2.43,0,0,1-.61-0.19,2.51,2.51,0,0,1-1-.81,2.64,2.64,0,0,1-.3-0.52,3.27,3.27,0,0,1-.24-1.47,5.88,5.88,0,0,1,.11-0.9,13.46,13.46,0,0,1,.36-1.37c0.26-.83.55-1.6,0.83-2.36l1.68-4.48q1.64-4.45,3-9a152.8,152.8,0,0,0,4.25-18.29,140.51,140.51,0,0,0,1.87-18.37c0.27-6.14.58-12.34,1.35-18.33a119.1,119.1,0,0,1,3.45-17.56c1.53-5.65,3.47-11,5.31-16.18s3.61-10.19,5.1-15.11a141.65,141.65,0,0,0,3.5-14.42,243.29,243.29,0,0,0,3.29-25.87c0.61-7.76.89-14.55,1.11-20.14l0.6-17.58,0.06,4.6c0,3,.09,7.4.06,13s-0.11,12.4-.47,20.21a226,226,0,0,1-2.54,26.16,145.35,145.35,0,0,1-3.22,14.74c-1.37,5-3,10.15-4.79,15.36s-3.56,10.52-4.95,16.05a124.44,124.44,0,0,0-3.09,17.13c-0.7,5.92-.93,11.91-1.13,18.11a138.06,138.06,0,0,1-1.74,18.86,156.67,156.67,0,0,1-4.29,18.75c-0.91,3.1-1.94,6.17-3,9.2l-1.67,4.5c-0.27.74-.54,1.47-0.76,2.17a9.76,9.76,0,0,0-.25,1,2,2,0,0,0,0,.29,0.82,0.82,0,0,0-.08-0.29,1.32,1.32,0,0,0-.15-0.26,1.56,1.56,0,0,0-.35-0.34,0.93,0.93,0,1,1-.19-0.11,1.71,1.71,0,0,0-.32-0.1,0.65,0.65,0,0,0-.36,0,3.17,3.17,0,0,0,.6-0.32,14.15,14.15,0,0,0,1.65-1.27,40.35,40.35,0,0,0,3.24-3.21A84.92,84.92,0,0,0,375,500a125.43,125.43,0,0,0,9.75-16,134.81,134.81,0,0,0,7.29-16.93c1-2.87,1.9-5.76,2.68-8.65l0.56-2.16,0.52-2.19c0.33-1.45.61-2.85,0.81-4.3,1.53-11.91,3.64-23.38,5.82-34.18s4.56-21,7-30.26c1.2-4.66,2.43-9.07,3.34-13.32s1.71-8.31,2.34-12.14c1.24-7.67,1.95-14.43,2.37-20s0.57-10,.6-13c0-1.5,0-2.65,0-3.42v-1.17Z" transform="translate(-78.43 -42.76)"/></g><g id="Stroke_Back_Leg" data-name="Stroke Back Leg"><path class="cls-2" d="M204.63,428.54s0.46,2.27,1.53,6.16c0.53,1.95,1.25,4.28,2.07,7l1.38,4.26,1.6,4.67c1.17,3.24,2.5,6.72,4,10.35s3.28,7.39,5.15,11.24,4.06,7.71,6.35,11.56A129.49,129.49,0,0,0,234.28,495c1.36,1.83,2.74,3.58,4.21,5.38s2.89,3.46,4.41,5.12a96.49,96.49,0,0,0,9.29,9.23c1.6,1.4,3.22,2.73,4.85,4s3.27,2.54,4.79,3.91,2.9,2.71,4.21,4.15a18.93,18.93,0,0,1,3.22,4.65,10.66,10.66,0,0,1,1.1,5.14c-0.08,1.64-.34,3.12-0.53,4.52l-1.09,7.21c-0.29,2-.47,3.57-0.55,4.65a13.37,13.37,0,0,0,0,1.66,13.4,13.4,0,0,1-.08-1.66c0-1.09.08-2.68,0.23-4.7s0.39-4.47.64-7.27a43.87,43.87,0,0,0,.25-4.41,9.53,9.53,0,0,0-1.39-4.38c-1.67-2.79-4.54-5.2-7.6-7.59s-6.68-4.57-10.16-7.3a93.14,93.14,0,0,1-10-9.24c-1.57-1.68-3.12-3.46-4.61-5.23s-3-3.6-4.38-5.48a132.67,132.67,0,0,1-13.87-23.71c-1.83-4-3.42-7.9-4.76-11.68-0.7-1.87-1.29-3.73-1.89-5.52S209.5,453,209,451.3s-0.91-3.31-1.27-4.85l-1-4.39c-0.6-2.75-1.05-5.19-1.37-7.19s-0.49-3.59-.6-4.67Z" transform="translate(-78.43 -42.76)"/></g><g id="Stroke_Front_Leg" data-name="Stroke Front Leg"><path class="cls-2" d="M528.63,545.75l1.53-1.35c1-.88,2.42-2.2,4.2-3.91s3.88-3.84,6.21-6.36,4.83-5.47,7.48-8.74c1.32-1.64,2.67-3.38,4.07-5.19l2.14-2.75c0.7-.93,1.41-1.86,2.12-2.84a150.18,150.18,0,0,0,8.16-12.71c2.63-4.54,5.23-9.4,7.88-14.23s5.07-9.83,5.91-15a34.27,34.27,0,0,0,.45-4c0.08-1.33,0-2.62,0-4.07a15.48,15.48,0,0,1,.45-4.74c0.11-.39.22-0.78,0.36-1.14l0.1-.28,0.08-.21,0.05-.12,0.21-.48c0.15-.33.24-0.62,0.44-1l0.56-1.07a23.51,23.51,0,0,1,5.86-6.74,30.65,30.65,0,0,1,7.35-4.35,27.26,27.26,0,0,1,8-2.1,24.71,24.71,0,0,1,7.88.72,41.35,41.35,0,0,0,6.77,1,39.86,39.86,0,0,0,6.39-.25,30.5,30.5,0,0,0,5.76-1.2,43.66,43.66,0,0,1,5.32-1.62,32.45,32.45,0,0,1,4.88-.6,23.38,23.38,0,0,1,4.17.23,50.76,50.76,0,0,1,5.64,1.21c1.28,0.34,2,.49,2,0.49s-0.7-.09-2-0.31a54.27,54.27,0,0,0-5.67-.72,22.64,22.64,0,0,0-4,.07,33,33,0,0,0-4.64,1,42.51,42.51,0,0,0-5,2,28.82,28.82,0,0,1-6,1.68,42.17,42.17,0,0,1-6.79.66,38.75,38.75,0,0,1-7.26-.72,21.68,21.68,0,0,0-7-.37,26.36,26.36,0,0,0-7,2.09,24.23,24.23,0,0,0-11.24,9.76l-0.41.78c-0.14.24-.27,0.62-0.41,0.92l-0.2.48-0.05.12s0-.11,0,0l0,0.05-0.07.22c-0.11.29-.19,0.58-0.26,0.86a11.54,11.54,0,0,0-.29,3.62c0.06,1.37.13,2.89,0.05,4.39a38,38,0,0,1-.47,4.45,36.88,36.88,0,0,1-2.62,8.52c-1.16,2.68-2.47,5.21-3.83,7.68s-2.73,4.86-4.11,7.22-2.75,4.7-4.15,7a124.68,124.68,0,0,1-8.8,12.7c-0.76,1-1.54,1.91-2.3,2.83l-2.27,2.65c-1.5,1.73-3,3.4-4.39,5-2.86,3.17-5.61,6-8.14,8.33s-4.84,4.32-6.77,5.89c-1,.78-1.84,1.47-2.62,2s-1.43,1.07-2,1.45Z" transform="translate(-78.43 -42.76)"/></g></svg>